<svg width="33" height="33" viewBox="0 0 33 33" fill="none" xmlns="http://www.w3.org/2000/svg">
<path d="M5.04517 6.96103L7.1301 30.1433L16.4859 32.6394L25.8676 30.1905L27.9549 6.96103H5.04517ZM23.6182 12.2387L23.4875 13.7428L23.43 14.4376H12.4552L12.7174 17.5313H23.1691L23.0993 18.1065L22.4251 25.5596L22.3756 25.9953L16.5 27.5767V27.5755L16.4931 27.5786L10.6209 26.0533L10.2223 21.6563H13.1015L13.3055 23.8374L16.4985 24.6467L16.5 24.5864V24.5895L19.7 23.9065L20.0341 20.3673H10.0942L9.38931 12.4174L9.32047 11.6017H23.6868L23.6182 12.2387ZM7.20744 0.419556H8.65686V1.85196H9.98305V0.419556H11.4327V4.75648H9.98305V3.30422H8.65712V4.75648H7.20744V0.419556ZM13.3387 1.85789H12.0626V0.419556H16.0651V1.85789H14.7884V4.75648H13.3387V1.85789ZM16.7004 0.419556H18.2116L19.1416 1.94349L20.0705 0.419556H21.5825V4.75648H20.1385V2.60684L19.1416 4.14881H19.1163L18.1186 2.60684V4.75648H16.7001V0.419556H16.7004ZM22.3042 0.419556H23.7541V3.32304H25.7926V4.75674H22.3042V0.419556Z" fill="#E44D26"/>
</svg>
