<svg width="34" height="34" viewBox="0 0 34 34" fill="none" xmlns="http://www.w3.org/2000/svg">
<path d="M5.22485 6.90625L7.36818 30.9435L16.9854 33.613L26.6294 30.94L28.7752 6.90625H5.22485ZM23.6088 20.3171L22.9845 26.1322L22.9869 26.6302L17 28.3023V28.3026L16.9952 28.3066L10.9605 26.6531L10.5522 22.0469H13.5116L13.7214 24.3753L17.0011 25.2506L17 25.2546V25.2461L20.2922 24.3177L20.6396 20.4531H13.7581L13.6991 19.8276L13.5647 18.3276L13.4943 17.5312H20.9015L21.1709 14.6094H9.88896L9.82973 13.9217L9.69532 12.32L9.62493 11.4219H24.3929L24.322 12.3075L23.6088 20.3171Z" fill="#1572B6"/>
<path d="M23.6406 3.81809L21.7417 1.59375H23.6406V0.265625H19.3906V1.42455L21.6192 3.45312H19.3906V4.78125H23.6406V3.81809ZM18.5938 3.81809L16.7856 1.59375H18.5938V0.265625H14.6094V1.42455L16.6635 3.45312H14.6094V4.78125H18.5938V3.81809ZM13.8125 3.45312H11.6875V1.59375H13.8125V0.265625H10.0938V4.78125H13.8125V3.45312Z" fill="#1572B6"/>
</svg>
