<svg width="34" height="34" viewBox="0 0 34 34" fill="none" xmlns="http://www.w3.org/2000/svg">
<path d="M27.7419 18.6702C26.8076 18.6714 25.8859 18.8851 25.0463 19.295C24.7835 18.8588 24.5805 18.3892 24.4428 17.8988C24.3637 17.5145 24.3455 17.1201 24.3886 16.7301C24.4795 16.3009 24.5973 15.8779 24.7414 15.4636C24.7361 15.4094 24.6766 15.1533 24.0784 15.1448C23.4802 15.1363 22.9649 15.2585 22.9096 15.4168C22.8058 15.706 22.7223 16.0021 22.66 16.303C22.1649 17.5243 21.5555 18.6962 20.8399 19.8028C20.439 19.1456 20.2741 18.3713 20.3724 17.6077C20.4632 17.1786 20.581 16.7555 20.7251 16.3412C20.7198 16.287 20.6603 16.031 20.0621 16.0225C19.464 16.014 18.9486 16.1362 18.8934 16.2945C18.8381 16.4528 18.768 16.8257 18.6437 17.1806C18.5194 17.5355 17.068 20.7782 16.6876 21.6144C16.4921 22.0394 16.3232 22.3858 16.2042 22.6195C16.1986 22.6347 16.1915 22.6493 16.183 22.6631C16.0767 22.8639 16.0204 22.9733 16.0204 22.9733V22.9787C15.9386 23.1253 15.8515 23.2613 15.8079 23.2613C15.7319 22.9577 15.7356 22.6397 15.8185 22.338C16.031 21.2128 16.5516 19.4639 16.5463 19.4033C16.5463 19.3704 16.6441 19.0665 16.2095 18.9093C16.1087 18.8613 15.9956 18.8458 15.8856 18.8648C15.7756 18.8838 15.6742 18.9365 15.5954 19.0155C15.5571 19.0155 15.5306 19.108 15.5306 19.108C15.5306 19.108 16.0034 17.1413 14.6285 17.1413C14.0931 17.249 13.5847 17.4627 13.1331 17.7698C12.6814 18.0768 12.2958 18.4711 11.9988 18.9295C11.6291 19.1303 10.8418 19.5595 9.99921 20.0217C9.68046 20.2013 9.34683 20.3808 9.03765 20.553C9.0164 20.5317 8.99408 20.5041 8.97284 20.4828C7.2994 18.7 4.22346 17.442 4.35627 15.0567C4.40515 14.1875 4.70371 11.9053 10.2627 9.13322C14.8378 6.87859 18.479 7.50335 19.1091 8.88885C20.0111 10.8672 17.1583 14.5403 12.4313 15.0726C11.9083 15.1787 11.3682 15.1659 10.8509 15.0351C10.3335 14.9044 9.8522 14.659 9.44246 14.3172C9.19277 14.0452 9.15452 14.0292 9.06209 14.0834C8.91015 14.1652 9.0079 14.4096 9.06209 14.5509C9.24242 14.8773 9.48633 15.1641 9.77941 15.3946C10.0725 15.6251 10.4088 15.7945 10.7685 15.8928C12.6281 16.2947 14.5669 16.1026 16.3115 15.3435C19.1803 14.2353 21.4115 11.1541 20.757 8.57328C20.0993 5.95422 15.7526 5.09041 11.6386 6.55453C9.06182 7.42161 6.68084 8.78738 4.63146 10.574C2.36515 12.6937 2.00709 14.535 2.15371 15.3074C2.68496 18.0465 6.4579 19.8283 7.96771 21.1512C7.89121 21.1947 7.82108 21.233 7.76159 21.2648C7.00615 21.6399 4.12677 23.1455 3.40534 24.7371C2.5904 26.5433 3.53602 27.8343 4.16077 28.0085C5.10215 28.2339 6.09041 28.1596 6.98757 27.7962C7.88472 27.4328 8.64601 26.7983 9.16515 25.9813C9.60721 25.3036 9.87894 24.5292 9.9572 23.7239C10.0355 22.9186 9.91791 22.1063 9.61458 21.3562C9.60946 21.3441 9.60227 21.3329 9.59334 21.3233L10.1851 20.9758C10.5708 20.7474 10.9512 20.536 11.2774 20.3617C11.0562 20.9997 10.9264 21.6658 10.8917 22.3401C10.8166 23.3737 11.1329 24.3977 11.7778 25.2088C11.876 25.2933 11.9899 25.3575 12.113 25.3976C12.2361 25.4377 12.366 25.453 12.495 25.4426C13.1325 25.4426 13.4247 24.9113 13.7445 24.2802C14.1355 23.5088 14.4883 22.6121 14.4883 22.6121C14.4883 22.6121 14.0484 25.0357 15.2437 25.0357C15.6783 25.0357 16.1181 24.4704 16.3147 24.1857V24.191C16.3147 24.191 16.3253 24.175 16.3476 24.1368L16.4178 24.0231V24.0125C16.592 23.7086 16.983 23.018 17.5642 21.8715C18.3143 20.3936 19.0368 18.5459 19.0368 18.5459C19.1065 18.952 19.2027 19.353 19.3248 19.7465C19.4998 20.2235 19.7067 20.6882 19.9442 21.1373C19.77 21.3817 19.6616 21.5177 19.6616 21.5177L19.6669 21.523C19.5256 21.7079 19.3736 21.9087 19.2047 22.1042C18.7021 22.6568 18.2357 23.2413 17.8086 23.8542C17.7451 23.9571 17.7233 24.0803 17.7476 24.1988C17.7719 24.3173 17.8404 24.422 17.9393 24.4917C18.1629 24.608 18.4179 24.6501 18.6671 24.6117C19.0426 24.5905 19.4119 24.5061 19.7593 24.362C20.0951 24.2439 20.4119 24.0774 20.6996 23.868C20.9963 23.6624 21.2351 23.384 21.3931 23.0595C21.5511 22.735 21.6229 22.3753 21.6017 22.015C21.5683 21.5611 21.4524 21.1172 21.2596 20.7049C21.3138 20.6284 21.3658 20.553 21.4168 20.4765C22.0209 19.5748 22.5654 18.6346 23.0467 17.6619C23.1164 18.068 23.2126 18.469 23.3346 18.8625C23.479 19.2747 23.6567 19.6745 23.8659 20.0578C23.171 20.5925 22.6236 21.2953 22.2753 22.1C21.9332 23.0892 22.1988 23.5343 22.7003 23.6374C22.9748 23.6563 23.2491 23.6001 23.494 23.4748C23.8541 23.3565 24.1933 23.1823 24.4991 22.9585C24.8217 22.7681 25.0918 22.5006 25.2853 22.1799C25.4787 21.8592 25.5894 21.4955 25.6073 21.1214C25.5832 20.748 25.4989 20.381 25.3576 20.0345C26.2747 19.6762 27.269 19.562 28.2434 19.703C30.8295 20.0068 31.3406 21.6208 31.2428 22.3008C31.197 22.5418 31.1001 22.7703 30.9586 22.9708C30.8171 23.1713 30.6343 23.3392 30.4226 23.4632C30.243 23.5768 30.1835 23.6151 30.1995 23.6969C30.2207 23.817 30.3057 23.8106 30.4598 23.7893C30.8495 23.6682 31.1934 23.4318 31.4461 23.1112C31.6988 22.7906 31.8483 22.401 31.875 21.9937C31.9568 20.4 30.4353 18.6522 27.7451 18.6681L27.7419 18.6702ZM7.78815 25.3937C6.92965 26.3287 5.73433 26.6815 5.21796 26.3829C4.66334 26.0642 4.88115 24.6829 5.93515 23.6927C6.56038 23.1298 7.23615 22.6259 7.9539 22.1871C8.07927 22.1106 8.26415 22.0022 8.48515 21.8683L8.54465 21.8354L8.67534 21.7536C8.86364 22.3845 8.88071 23.0541 8.7248 23.6938C8.5689 24.3335 8.24562 24.9202 7.78815 25.3937ZM14.0367 21.1437C13.7381 21.8715 13.1134 23.7362 12.733 23.6321C12.4068 23.545 12.2018 22.1318 12.6682 20.7357C12.9037 20.0636 13.2468 19.4342 13.684 18.8721C14.1515 18.3504 14.6678 18.1762 14.7921 18.3887C14.6787 19.3395 14.4241 20.268 14.0367 21.1437ZM19.193 23.6108C19.0676 23.6757 18.9486 23.7171 18.8945 23.6873C18.8562 23.6661 18.9486 23.5811 18.9486 23.5811C18.9486 23.5811 19.5957 22.8852 19.8507 22.5707C19.9973 22.3858 20.1695 22.169 20.3565 21.9236V21.9937C20.3565 22.8246 19.5521 23.3845 19.1941 23.613L19.193 23.6108ZM23.171 22.7035C23.0786 22.6387 23.0945 22.4208 23.4048 21.7419C23.6205 21.3059 23.9219 20.9178 24.2909 20.6008C24.3475 20.7616 24.3769 20.9307 24.378 21.1012C24.3822 21.4641 24.2662 21.8182 24.048 22.1082C23.8299 22.3982 23.5219 22.6079 23.1721 22.7045L23.171 22.7035Z" fill="#CD6799"/>
</svg>
