<svg width="35" height="28" viewBox="0 0 35 28" fill="none" xmlns="http://www.w3.org/2000/svg">
<g clip-path="url(#clip0)">
<path fill-rule="evenodd" clip-rule="evenodd" d="M5.38125 19.2992L3.55027 19.9681L3.45197 25.4151L9.79018 23.0997C7.61624 22.3694 6.02871 21.0846 5.38125 19.2992Z" fill="#FDBD39"/>
<path fill-rule="evenodd" clip-rule="evenodd" d="M6.33944 13.538L-0.0134277 15.8588L3.55027 19.968L5.38125 19.2991C4.73568 17.5189 5.1338 15.5066 6.33944 13.538Z" fill="#F69833"/>
<path fill-rule="evenodd" clip-rule="evenodd" d="M17.0302 5.67822C8.9404 8.63351 3.72497 14.7318 5.38123 19.2991L34.677 8.597C33.0207 4.02967 25.12 2.72291 17.0302 5.67822Z" fill="#FECF33"/>
<path fill-rule="evenodd" clip-rule="evenodd" d="M23.028 22.2179C31.1178 19.2626 36.343 13.1914 34.677 8.59705L5.38126 19.2991C7.0473 23.8935 14.9382 25.1732 23.028 22.2179Z" fill="#EE6723"/>
<path fill-rule="evenodd" clip-rule="evenodd" d="M34.677 8.59705L5.38126 19.2991C5.95491 20.8811 8.14247 21.6604 11.2119 21.6604C14.2043 21.6604 18.0348 20.9202 22.0284 19.4613C30.1182 16.506 35.8099 11.7212 34.677 8.59705Z" fill="#F69833"/>
<path fill-rule="evenodd" clip-rule="evenodd" d="M28.8464 6.23572C25.8539 6.23572 22.0234 6.97593 18.0298 8.43482C9.94003 11.3901 4.24831 16.1749 5.38124 19.2991L34.677 8.597C34.1033 7.01507 31.9158 6.23572 28.8464 6.23572Z" fill="#FDBD39"/>
<path fill-rule="evenodd" clip-rule="evenodd" d="M27.2284 25.7035H27.2282C26.3663 25.7035 25.0947 24.9249 23.4487 23.3894C21.5014 21.5728 19.2707 18.9121 17.1676 15.8974C15.0645 12.8828 13.3363 9.86894 12.3015 7.41091C11.174 4.73227 11.0133 3.08527 11.8237 2.51562C12.0014 2.39085 12.2156 2.32764 12.4603 2.32764C13.1195 2.32764 14.404 2.81843 16.7792 5.15671L16.8311 5.20781L16.8241 5.28049C16.8078 5.44847 16.7929 5.61796 16.7795 5.7843L16.753 6.11462L16.52 5.87985C13.9609 3.3016 12.8343 3.02326 12.4687 3.02326C12.3644 3.02326 12.2814 3.04446 12.2219 3.0863C11.8704 3.3333 11.8477 4.54307 12.9408 7.13971C13.9572 9.55393 15.6602 12.5222 17.7361 15.4978C19.8121 18.4736 22.0086 21.095 23.9212 22.8791C25.9835 24.803 26.9128 25.0107 27.2167 25.0107C27.3216 25.0107 27.4069 24.9882 27.4701 24.9437C27.8409 24.6831 27.8414 23.3872 26.6224 20.5923L26.5664 20.464L26.6889 20.397C26.8115 20.3299 26.9299 20.2638 27.0411 20.2007L27.1878 20.1173L27.2555 20.2723C28.1198 22.2526 28.9277 24.7696 27.8683 25.5144C27.6897 25.6399 27.4744 25.7035 27.2284 25.7035ZM27.2282 25.398H27.2285L27.2283 25.5507L27.2282 25.398Z" fill="#EE6723"/>
<path fill-rule="evenodd" clip-rule="evenodd" d="M23.2244 22.1344L23.2121 22.2866C23.0076 24.8173 22.4691 27.8598 21.065 27.9829C21.0367 27.9854 21.0074 27.9867 20.9781 27.9867C20.0243 27.9867 19.1219 26.6201 18.296 23.9247C17.5147 21.3748 16.9083 17.951 16.5887 14.2843C16.2691 10.6183 16.2739 7.14088 16.6022 4.49278C16.9601 1.60717 17.6414 0.100215 18.6271 0.0137144C18.6562 0.0110281 18.6864 0.00964355 18.7162 0.00964355C19.4082 0.00964355 20.451 0.793148 21.5186 4.44257L20.8215 4.57712C20.4651 3.35758 20.0766 2.36569 19.691 1.68413C19.3342 1.0537 18.9874 0.706523 18.7143 0.706523C18.7053 0.706523 18.6962 0.706895 18.6873 0.70766C18.2601 0.745186 17.6379 1.78156 17.291 4.57883C16.9685 7.17942 16.9646 10.6047 17.28 14.2236C17.5956 17.8431 18.1921 21.2157 18.9594 23.72C19.3031 24.8416 19.68 25.7659 20.0495 26.3932C20.3902 26.9716 20.7199 27.2901 20.9779 27.2901C20.9868 27.2901 20.9956 27.2897 21.0044 27.289C21.4132 27.2531 22.1836 26.1747 22.5079 22.3803L23.2244 22.1344Z" fill="#EE6723"/>
</g>
<defs>
<clipPath id="clip0">
<rect width="35" height="28" fill="white"/>
</clipPath>
</defs>
</svg>
