<svg width="21" height="32" viewBox="0 0 21 32" fill="none" xmlns="http://www.w3.org/2000/svg">
<path d="M5.25277 32C8.14895 32 10.5 29.6112 10.5 26.6685V21.337H5.25277C2.3566 21.337 0.00552368 23.7258 0.00552368 26.6685C0.00552368 29.6112 2.3566 32 5.25277 32Z" fill="#0ACF83"/>
<path d="M0 16.0001C0 13.0574 2.35108 10.6686 5.24725 10.6686H10.4945V21.3371H5.24725C2.35108 21.3371 0 18.9483 0 16.0056V16.0001Z" fill="#A259FF"/>
<path d="M0 5.33147C0 2.38881 2.35108 0 5.24725 0H10.4945V10.6685H5.24725C2.35108 10.6685 0 8.27973 0 5.33707V5.33147Z" fill="#F24E1E"/>
<path d="M10.4504 0H15.6977C18.5939 0 20.9449 2.38881 20.9449 5.33147C20.9449 8.27413 18.5939 10.6629 15.6977 10.6629H10.4504V0Z" fill="#FF7262"/>
<path d="M21 16.0001C21 18.9427 18.6489 21.3315 15.7528 21.3315C12.8566 21.3315 10.4504 18.9427 10.4504 16.0001C10.4504 13.0574 12.8015 10.6686 15.6977 10.6686C18.5939 10.6686 20.9449 13.0574 20.9449 16.0001H21Z" fill="#1ABCFE"/>
</svg>
