<svg width="19" height="20" viewBox="0 0 19 20" fill="none" xmlns="http://www.w3.org/2000/svg">
<path d="M2.15 17.6633H14.0325L13.465 15.8258C13.5492 15.8992 18.3333 20 18.3333 20V2.0625C18.2767 0.9475 17.3167 0 16.1267 0L2.15417 0.0025C0.965 0.0025 0 0.951667 0 2.06667V15.6C0 16.7758 0.963333 17.6633 2.15 17.6633ZM10.94 4.73583L10.9125 4.74583L10.9225 4.73583H10.94ZM4.58083 5.79333C6.10833 4.68167 7.52417 4.735 7.52417 4.735L7.63833 4.8475C5.76917 5.29333 4.92167 6.12833 4.92167 6.12833C5.00833 6.11 8.7825 3.9325 13.3558 6.18333C13.3558 6.18333 12.5067 5.4025 10.7525 4.9025L10.9075 4.75C11.15 4.75083 12.4333 4.79583 13.8067 5.8C13.8067 5.8 15.3433 8.425 15.3433 11.65C15.2925 11.5883 14.39 13.0383 12.0675 13.0883C12.0675 13.0883 11.6742 12.6433 11.3942 12.255C12.7525 11.865 13.2608 11.085 13.2608 11.085C10.6167 12.75 8.29917 12.49 5.52667 11.365C5.50083 11.365 5.48917 11.3533 5.47583 11.34V11.335C5.4625 11.3225 5.45083 11.31 5.425 11.31H5.375C5.205 11.1983 5.09167 11.1433 5.09167 11.1433C5.09167 11.1433 5.59917 11.9233 6.90333 12.3133C6.56083 12.7042 6.22167 13.1483 6.22167 13.1483C3.9 13.0933 3.05333 11.6433 3.05333 11.6433C3.05333 8.41333 4.58083 5.79333 4.58083 5.79333Z" fill="#FACB02"/>
<path d="M11.09 10.6425C11.6825 10.6425 12.165 10.1425 12.165 9.52583C12.165 8.91333 11.685 8.41333 11.09 8.41333V8.41583C10.5 8.41583 10.0167 8.91416 10.015 9.53083C10.015 10.1425 10.4975 10.6425 11.09 10.6425Z" fill="#FACB02"/>
<path d="M7.24169 10.6425C7.83419 10.6425 8.31669 10.1425 8.31669 9.52583C8.31669 8.91333 7.83752 8.41333 7.24502 8.41333L7.24169 8.41583C6.64919 8.41583 6.16669 8.91416 6.16669 9.53083C6.16669 10.1425 6.64919 10.6425 7.24169 10.6425Z" fill="#FACB02"/>
</svg>
