<svg width="20" height="20" viewBox="0 0 20 20" fill="none" xmlns="http://www.w3.org/2000/svg">
<path d="M18.9952 3.14502L9.99998 12.1012L1.0047 3.14502C0.642046 3.31854 0.349663 3.61092 0.176147 3.97357L8.75716 12.5155C9.41978 13.1781 10.5808 13.1781 11.2422 12.5155L19.8238 3.9735C19.6503 3.61088 19.3579 3.31854 18.9952 3.14502Z" fill="#FACB02"/>
<path d="M2.4856 2.96875L9.99993 10.444L17.5143 2.96875H2.4856Z" fill="#FACB02"/>
<path d="M0 5.45459V15.2735C0 16.0364 0.491328 16.6807 1.17188 16.9234V6.62646L0 5.45459Z" fill="#FACB02"/>
<path d="M16.4844 8.96997L12.1104 13.3439C11.5583 13.8967 10.7839 14.2011 10 14.2011C9.21609 14.2011 8.48078 13.8966 7.92805 13.3439L3.51562 8.97017L2.34375 7.79821V17.0312C7.93711 17.0312 12.0602 17.0312 17.6562 17.0312V7.7981L16.4844 8.96997Z" fill="#FACB02"/>
<path d="M18.8281 6.62622V16.9233C19.5087 16.6806 20 16.0363 20 15.2734V5.45435L18.8281 6.62622Z" fill="#FACB02"/>
</svg>
