<svg width="122" height="48" viewBox="0 0 122 48" fill="none" xmlns="http://www.w3.org/2000/svg">
<path d="M62.9863 17.5432L68.7905 17.1677C68.923 18.1176 69.1657 18.8245 69.563 19.3326C70.203 20.1279 71.0858 20.5255 72.2554 20.5255C73.1161 20.5255 73.8003 20.3267 74.2638 19.907C74.7051 19.5756 74.97 19.0454 74.97 18.4931C74.97 17.963 74.7272 17.4549 74.3079 17.1235C73.8665 16.7259 72.8292 16.3282 71.1961 15.9748C68.5257 15.3783 66.6057 14.583 65.4801 13.5668C64.3546 12.6169 63.7146 11.2252 63.7587 9.74504C63.7587 8.72885 64.0677 7.71266 64.6415 6.87319C65.3036 5.92327 66.2084 5.17217 67.2898 4.75244C68.4595 4.24434 70.0926 3.97925 72.1451 3.97925C74.661 3.97925 76.5811 4.44316 77.9052 5.39308C79.2294 6.32091 80.0239 7.82311 80.2667 9.87759L74.5286 10.209C74.3741 9.32531 74.0651 8.68467 73.5575 8.26493C73.0499 7.8452 72.3879 7.64638 71.5271 7.64638C70.8209 7.64638 70.2913 7.80102 69.9381 8.08821C69.6071 8.3533 69.3864 8.75094 69.4085 9.19276C69.4085 9.52413 69.585 9.83341 69.8499 10.0322C70.1368 10.2973 70.8209 10.5403 71.9023 10.7612C74.5727 11.3356 76.4707 11.91 77.6404 12.5064C78.8101 13.1029 79.6487 13.8319 80.1563 14.6935C80.686 15.5771 80.9508 16.5933 80.9287 17.6316C80.9287 18.8687 80.5756 20.1058 79.8694 21.1441C79.1411 22.2266 78.1259 23.066 76.9342 23.5741C75.6762 24.1264 74.0872 24.4136 72.1892 24.4136C68.8347 24.4136 66.5174 23.7729 65.2153 22.4696C63.9132 21.1662 63.1407 19.5314 62.9863 17.5432ZM1.39038 24.0822V4.33271H11.5644C13.4403 4.33271 14.8969 4.48734 15.89 4.81871C16.8611 5.12799 17.7218 5.76863 18.2956 6.63019C18.9356 7.58011 19.2446 8.68467 19.2225 9.83341C19.2887 11.7774 18.2956 13.6331 16.5962 14.6051C15.9342 14.9806 15.2059 15.2457 14.4555 15.3783C15.0072 15.5329 15.559 15.798 16.0445 16.1073C16.4197 16.4166 16.7287 16.77 17.0156 17.1456C17.3466 17.5211 17.6335 17.9409 17.8763 18.3827L20.8336 24.1043H13.9038L10.6375 18.0292C10.2182 17.256 9.86505 16.7479 9.53401 16.5049C9.09262 16.1957 8.56295 16.041 8.03329 16.041H7.50362V24.0601H1.39038V24.0822ZM7.50362 12.3297H10.0857C10.6375 12.2855 11.1672 12.1972 11.6968 12.0646C12.0941 11.9983 12.4472 11.7774 12.6899 11.4461C13.2858 10.6508 13.1975 9.52413 12.4692 8.8393C12.072 8.50794 11.2996 8.33121 10.1961 8.33121H7.50362V12.3297ZM0 41.004L5.80427 40.6285C5.93669 41.5784 6.17945 42.2853 6.5767 42.7934C7.19465 43.5887 8.09949 44.0084 9.26918 44.0084C10.1299 44.0084 10.814 43.8096 11.2775 43.3899C11.7189 43.0364 11.9837 42.5283 11.9837 41.9761C11.9837 41.4459 11.741 40.9378 11.3216 40.6064C10.8802 40.2088 9.84298 39.8111 8.18777 39.4577C5.51737 38.8612 3.59732 38.0659 2.47178 37.0497C1.34624 36.0998 0.706223 34.7081 0.750362 33.228C0.750362 32.2118 1.05933 31.1956 1.63314 30.3561C2.29522 29.4062 3.20007 28.6551 4.28148 28.2354C5.45116 27.7273 7.0843 27.4622 9.13676 27.4622C11.6527 27.4622 13.5727 27.9261 14.8969 28.876C16.2211 29.8259 16.9935 31.306 17.2363 33.3605L11.4982 33.6919C11.3437 32.8082 11.0347 32.1676 10.5271 31.7478C10.0416 31.3281 9.35745 31.1293 8.49675 31.1514C7.79052 31.1514 7.26085 31.306 6.90774 31.6153C6.55463 31.8804 6.35601 32.278 6.37808 32.7199C6.37808 33.0512 6.55463 33.3605 6.81947 33.5593C7.10637 33.8244 7.79052 34.0674 8.87193 34.2883C11.5423 34.8627 13.4403 35.4371 14.61 36.0335C15.7797 36.63 16.6183 37.359 17.1259 38.2206C17.6556 39.1042 17.9204 40.1204 17.9204 41.1366C17.9204 42.3737 17.5452 43.5887 16.8611 44.627C16.1328 45.7095 15.1176 46.5489 13.9258 47.057C12.6679 47.6093 11.0789 47.8965 9.1809 47.8965C5.82634 47.8965 3.50905 47.2558 2.20695 45.9525C0.904848 44.627 0.176556 42.9922 0 41.004H0Z" fill="black"/>
<path d="M29.3524 39.4574L34.6932 41.0701C34.4063 42.4176 33.8105 43.6989 32.9939 44.8256C32.2435 45.8197 31.2504 46.5929 30.1249 47.101C28.9772 47.6091 27.5207 47.8741 25.7551 47.8741C23.6144 47.8741 21.8488 47.5649 20.5026 46.9463C19.1343 46.3278 17.9646 45.2232 16.9715 43.6547C15.9783 42.0863 15.4928 40.076 15.4928 37.6238C15.4928 34.3544 16.3535 31.836 18.097 30.0908C19.8405 28.3456 22.2902 27.4619 25.4682 27.4619C27.962 27.4619 29.9042 27.97 31.3387 28.9641C32.7511 29.9803 33.8105 31.5267 34.5167 33.6033L29.1317 34.7962C28.9993 34.3323 28.8007 33.8684 28.5359 33.4707C28.2048 33.0068 27.7855 32.6533 27.2779 32.3882C26.7703 32.1231 26.1965 32.0127 25.6227 32.0127C24.2323 32.0127 23.173 32.565 22.4447 33.6916C21.8929 34.509 21.606 35.8124 21.606 37.5797C21.606 39.7667 21.9371 41.2689 22.5992 42.0863C23.2613 42.9036 24.1882 43.3013 25.402 43.3013C26.5717 43.3013 27.4544 42.9699 28.0503 42.3293C28.6462 41.6444 29.0876 40.6945 29.3524 39.4574ZM41.8217 27.7933H47.9128V34.7078H54.5778V27.7933H60.7131V47.5428H54.5778V39.5458H47.9128V47.5428H41.8217V27.7933Z" fill="black"/>
<path d="M59.8745 37.6682C59.8745 34.4428 60.7794 31.9244 62.567 30.1351C64.3546 28.3457 66.8705 27.4399 70.0706 27.4399C73.359 27.4399 75.8749 28.3236 77.6625 30.0909C79.4501 31.8582 80.3329 34.3324 80.3329 37.5135C80.3329 39.8331 79.9357 41.7108 79.1632 43.1909C78.4129 44.649 77.2432 45.8419 75.8087 46.6372C74.33 47.4545 72.4983 47.8743 70.3134 47.8743C68.0844 47.8743 66.2526 47.5208 64.796 46.8139C63.2953 46.0628 62.0594 44.892 61.2428 43.456C60.338 41.9097 59.8745 39.9877 59.8745 37.6682ZM65.9657 37.6902C65.9657 39.6784 66.3409 41.1144 67.0692 41.998C67.7975 42.8596 68.8127 43.3014 70.0927 43.3014C71.3948 43.3014 72.41 42.8817 73.1383 42.0201C73.8666 41.1586 74.2197 39.6343 74.2197 37.4251C74.2197 35.5695 73.8445 34.1998 73.0941 33.3604C72.3438 32.4988 71.3286 32.0791 70.0485 32.0791C68.923 32.0349 67.8416 32.5209 67.0912 33.3825C66.3409 34.244 65.9657 35.6799 65.9657 37.6902ZM86.5786 37.6682C86.5786 34.4428 87.4834 31.9244 89.271 30.1351C91.0587 28.3457 93.5746 27.4399 96.7747 27.4399C100.063 27.4399 102.601 28.3236 104.367 30.0909C106.132 31.8582 107.037 34.3324 107.037 37.5135C107.037 39.8331 106.64 41.7108 105.867 43.1909C105.117 44.649 103.947 45.8419 102.513 46.6372C101.034 47.4545 99.2023 47.8743 97.0174 47.8743C94.7884 47.8743 92.9567 47.5208 91.5001 46.8139C89.9993 46.0628 88.7635 44.892 87.9469 43.456C87.042 41.9097 86.5786 39.9877 86.5786 37.6682ZM92.6697 37.6902C92.6697 39.6784 93.0449 41.1144 93.7732 41.998C94.5015 42.8596 95.5167 43.3014 96.7967 43.3014C98.0988 43.3014 99.114 42.8817 99.8423 42.0201C100.571 41.1586 100.924 39.6343 100.924 37.4251C100.924 35.5695 100.549 34.1998 99.7982 33.3604C99.0478 32.4988 98.0326 32.0791 96.7526 32.0791C95.6271 32.0349 94.5236 32.5209 93.7953 33.3825C93.0449 34.244 92.6697 35.6799 92.6697 37.6902Z" fill="black"/>
<path d="M106.397 27.7935H112.488V42.6829H122V47.543H106.375V27.7935H106.397Z" fill="black"/>
<path d="M99.6831 26.6537C105.816 22.0278 107.707 14.1862 103.907 9.13897C100.107 4.09172 92.0554 3.75015 85.9229 8.37604C79.7904 13.0019 77.8993 20.8436 81.6991 25.8908C85.4988 30.938 93.5506 31.2796 99.6831 26.6537Z" fill="#121214"/>
<path d="M99.6969 26.6537C105.829 22.0278 107.72 14.1862 103.921 9.13897C100.121 4.09172 92.0692 3.75015 85.9367 8.37604C79.8041 13.0019 77.9131 20.8436 81.7129 25.8908C85.5126 30.938 93.5643 31.2796 99.6969 26.6537Z" fill="#FFE600"/>
<path d="M99.6969 26.6537C105.829 22.0278 107.72 14.1862 103.921 9.13897C100.121 4.09172 92.0692 3.75015 85.9367 8.37604C79.8041 13.0019 77.9131 20.8436 81.7129 25.8908C85.5126 30.938 93.5643 31.2796 99.6969 26.6537Z" stroke="#FFB800" stroke-width="4" stroke-miterlimit="10"/>
<path d="M86.6144 16.063L88.8213 14.5167L91.5359 18.3826C91.9993 19.0012 92.3524 19.6639 92.6173 20.3929C92.7718 20.9452 92.7276 21.5417 92.5069 22.0718C92.22 22.7346 91.7566 23.2869 91.1386 23.6845C90.4103 24.1926 89.7924 24.4798 89.2627 24.5681C88.7551 24.6565 88.2254 24.5681 87.7399 24.3472C87.2102 24.0821 86.7468 23.7066 86.3937 23.2206L88.2917 21.4533C88.4461 21.6963 88.6448 21.9172 88.8655 22.0939C89.0199 22.2044 89.1965 22.2707 89.3951 22.2707C89.5496 22.2707 89.7041 22.2044 89.8144 22.116C90.0351 21.9835 90.1896 21.7184 90.1676 21.4533C90.1013 21.0777 89.9469 20.7022 89.7041 20.415L86.6144 16.063ZM93.2352 18.5152L95.2435 16.9246C95.4642 17.1897 95.7511 17.3885 96.0601 17.499C96.5015 17.6315 96.965 17.5432 97.3401 17.256C97.605 17.0792 97.8257 16.8362 97.9139 16.527C98.0464 16.1293 97.8257 15.6875 97.4284 15.5549C97.3622 15.5329 97.296 15.5108 97.2298 15.5108C96.965 15.4887 96.5015 15.5991 95.8173 15.8863C94.6918 16.3502 93.809 16.527 93.1469 16.4607C92.5069 16.3944 91.911 16.063 91.5579 15.5108C91.2931 15.1352 91.1607 14.6934 91.1386 14.2516C91.1386 13.7435 91.271 13.2354 91.5579 12.8156C91.9773 12.2192 92.4848 11.7111 93.1028 11.3134C94.0297 10.6728 94.8463 10.3635 95.5525 10.3635C96.2587 10.3635 96.9208 10.6949 97.5388 11.3797L95.5525 12.9482C95.1553 12.4401 94.4049 12.3296 93.8973 12.7273L93.8311 12.7936C93.6104 12.9261 93.4559 13.1249 93.3676 13.3679C93.3014 13.5447 93.3456 13.7435 93.4559 13.8981C93.5442 14.0086 93.6766 14.0969 93.8311 14.0969C94.0076 14.119 94.3166 14.0307 94.758 13.8318C95.8615 13.3679 96.7001 13.1028 97.2739 13.0145C97.7595 12.9261 98.267 12.9703 98.7305 13.1691C99.1498 13.3458 99.5029 13.6551 99.7457 14.0307C100.055 14.4725 100.231 15.0027 100.253 15.5549C100.275 16.1293 100.121 16.6816 99.8119 17.1676C99.4147 17.7641 98.9071 18.2722 98.3112 18.6698C97.0974 19.5093 96.1042 19.8627 95.3097 19.7302C94.449 19.5976 93.7428 19.1558 93.2352 18.5152Z" fill="black"/>
</svg>
