<svg width="260" height="260" viewBox="0 0 260 260" fill="none" xmlns="http://www.w3.org/2000/svg">
<circle cx="130" cy="130" r="130" fill="black"/>
<path d="M192 164.5L130 25L68 164.5L130 141.25L192 164.5ZM130 55.8938L168.377 142.241L130 127.85L91.6236 142.241L130 55.8938Z" fill="#FFC700"/>
<path d="M130 172.191C112.704 172.191 98.6323 186.263 98.6323 203.559C100.209 245.115 159.797 245.104 161.368 203.558C161.368 186.262 147.296 172.191 130 172.191V172.191ZM130 222.379C119.622 222.379 111.179 213.937 111.179 203.559C112.125 178.625 147.878 178.632 148.82 203.559C148.82 213.936 140.378 222.379 130 222.379V222.379Z" fill="#FFC700"/>
</svg>
